<svg xmlns="http://www.w3.org/2000/svg" xmlns:xlink="http://www.w3.org/1999/xlink" width="100" height="100" preserveAspectRatio="xMidYMid meet" viewBox="0 0 100 100" style="-ms-transform: rotate(360deg); -webkit-transform: rotate(360deg); transform: rotate(360deg);"><path d="M76.982 50c0-.847-.474-1.575-1.167-1.957L26.541 19.595a2.23 2.23 0 0 0-1.279-.404a2.244 2.244 0 0 0-2.244 2.243c0 .087.016.169.026.253h-.026v57.131h.026a2.235 2.235 0 0 0 2.218 1.99a2.22 2.22 0 0 0 1.117-.308l.02.035L75.875 51.97l-.02-.035A2.233 2.233 0 0 0 76.982 50z" fill="#ECF0F1"/><rect x="0" y="0" width="100" height="100" fill="rgba(0, 0, 0, 0)" /></svg>